<svg width="107" height="76" viewBox="0 0 107 76" fill="none" xmlns="http://www.w3.org/2000/svg">
<path d="M11.1457 26.75H22.2915C21.605 26.75 20.9584 26.4333 20.535 25.894C20.1114 25.3546 19.9642 24.6501 20.1293 23.9813L21.5159 18.4397C22.2606 15.4571 24.931 13.375 28.0028 13.375H42.3542C46.0413 13.375 49.0416 16.3754 49.0416 20.0625V24.5207C49.0416 25.7512 48.0429 26.75 46.8124 26.75H60.1874C58.9569 26.75 57.9582 25.7512 57.9582 24.5207V20.0625C57.9582 16.3754 60.9585 13.375 64.6456 13.375H78.997C82.0688 13.375 84.7392 15.4571 85.4838 18.4397L86.8705 23.9813C87.0399 24.6457 86.8882 25.3546 86.4648 25.894C86.0412 26.4333 85.3948 26.75 84.7083 26.75H95.854C97.0845 26.75 98.0833 25.7512 98.0833 24.5207V11.1457C98.0833 5.00224 93.081 0 86.9375 0H20.0625C13.919 0 8.91672 5.00224 8.91672 11.1457V24.5207C8.91672 25.7512 9.91524 26.75 11.1457 26.75Z" fill="#444444"/>
<path d="M95.854 31.2083H11.1457C5.00224 31.2083 0 36.2105 0 42.354V73.5622C0 74.7927 0.998734 75.7914 2.22923 75.7914C3.45973 75.7914 4.45846 74.7927 4.45846 73.5622V66.8747H102.542V73.5622C102.542 74.7927 103.54 75.7914 104.771 75.7914C106.001 75.7914 107 74.7927 107 73.5622V42.354C107 36.2105 101.998 31.2083 95.854 31.2083ZM102.542 62.4165H4.45826V57.9582H102.541V62.4165H102.542Z" fill="#444444"/>
</svg>
