<svg width="66" height="76" viewBox="0 0 66 76" fill="none" xmlns="http://www.w3.org/2000/svg">
<path d="M59.875 0.75H54.5V8.8125C54.5 13.2576 50.8826 16.875 46.4375 16.875H19.5625C15.1174 16.875 11.5 13.2576 11.5 8.8125V0.75H6.125C3.16337 0.75 0.75 3.16337 0.75 6.125V70.625C0.75 73.6404 3.10963 76 6.125 76H59.875C62.8904 76 65.25 73.6404 65.25 70.625V6.125C65.25 3.10963 62.8904 0.75 59.875 0.75ZM32.2153 48.3403L21.4653 59.0903C20.9385 59.6116 20.2505 59.875 19.5625 59.875C18.8745 59.875 18.1865 59.6116 17.6597 59.0903L12.2847 53.7153C11.2366 52.6671 11.2366 50.9633 12.2847 49.9151C13.3329 48.867 15.0368 48.867 16.0849 49.9151L19.5625 53.3874L28.4097 44.5401C29.4579 43.492 31.1618 43.492 32.2099 44.5401C33.258 45.5883 33.2634 47.2868 32.2153 48.3403ZM32.2153 26.8403L21.4653 37.5903C20.9385 38.1116 20.2505 38.375 19.5625 38.375C18.8745 38.375 18.1865 38.1116 17.6597 37.5903L12.2847 32.2153C11.2366 31.1671 11.2366 29.4632 12.2847 28.4151C13.3329 27.367 15.0368 27.367 16.0849 28.4151L19.5625 31.8874L28.4097 23.0401C29.4579 21.992 31.1618 21.992 32.2099 23.0401C33.258 24.0882 33.2634 25.7868 32.2153 26.8403ZM51.8125 54.5H41.0625C39.579 54.5 38.375 53.296 38.375 51.8125C38.375 50.329 39.579 49.125 41.0625 49.125H51.8125C53.296 49.125 54.5 50.329 54.5 51.8125C54.5 53.296 53.296 54.5 51.8125 54.5ZM51.8125 33H41.0625C39.579 33 38.375 31.796 38.375 30.3125C38.375 28.829 39.579 27.625 41.0625 27.625H51.8125C53.296 27.625 54.5 28.829 54.5 30.3125C54.5 31.796 53.296 33 51.8125 33Z" fill="#444444"/>
</svg>
