<svg width="49" height="42" viewBox="0 0 49 42" fill="none" xmlns="http://www.w3.org/2000/svg">
<path fill-rule="evenodd" clip-rule="evenodd" d="M34.9426 33.6792L32.5328 29.717L30.9262 32.0943H28.918L31.3279 27.7358L24.5 16.2453L22.0902 20.6038H24.9016L25.7049 22.1887H21.2869L14.459 33.6792H19.2787L18.0738 31.3019L18.877 29.717L21.2869 33.6792H34.9426ZM12.4508 33.6792L19.2787 22.1887H11.6475L24.5 0L25.7049 1.58491L14.459 20.6038H20.082L28.5164 6.33962L34.9426 17.8302H33.3361L28.5164 9.90566L25.7049 14.6604L32.5328 26.1509L36.1475 19.8113L49 42H47.3934L36.1475 22.9811L33.3361 27.7358L41.7705 42H28.1148L29.3197 40.4151H38.5574L35.7459 35.6604H22.0902L26.1066 42H0L1.20492 40.4151H23.2951L20.4836 35.6604H4.01639L10.4426 24.1698L11.6475 25.7547L6.82787 33.6792H12.4508Z" fill="#FFC02E"/>
</svg>
