<svg width="70" height="84" viewBox="0 0 70 84" fill="none" xmlns="http://www.w3.org/2000/svg">
<path d="M0.5 46.5C0.500042 42.206 2.03497 38.0534 4.82776 34.7917C7.62056 31.53 11.4873 29.374 15.7301 28.7128C17.5664 28.43 19.4351 28.43 21.2714 28.7128C25.5139 29.3744 29.3802 31.5306 32.1727 34.7923C34.9651 38.0539 36.4999 42.2063 36.5 46.5V54H35C32.2162 54.0031 29.5473 55.1104 27.5788 57.0788C25.6104 59.0473 24.5031 61.7162 24.5 64.5V66H0.5V46.5ZM14 25.5H23C23.3978 25.5 23.7794 25.342 24.0607 25.0607C24.342 24.7794 24.5 24.3978 24.5 24C24.5 23.6022 24.342 23.2206 24.0607 22.9393C23.7794 22.658 23.3978 22.5 23 22.5H14C13.6022 22.5 13.2206 22.658 12.9393 22.9393C12.658 23.2206 12.5 23.6022 12.5 24C12.5 24.3978 12.658 24.7794 12.9393 25.0607C13.2206 25.342 13.6022 25.5 14 25.5ZM20 19.5V15H17V19.5H20ZM62 25.5C62.5933 25.5 63.1734 25.3241 63.6667 24.9944C64.1601 24.6648 64.5446 24.1962 64.7716 23.6481C64.9987 23.0999 65.0581 22.4967 64.9424 21.9147C64.8266 21.3328 64.5409 20.7982 64.1213 20.3787C63.7018 19.9591 63.1672 19.6734 62.5853 19.5576C62.0033 19.4419 61.4001 19.5013 60.852 19.7284C60.3038 19.9554 59.8352 20.3399 59.5056 20.8333C59.1759 21.3266 59 21.9067 59 22.5C59.0009 23.2954 59.3173 24.0579 59.8797 24.6203C60.4421 25.1827 61.2046 25.4991 62 25.5ZM62 6C62.5933 6 63.1734 5.82405 63.6667 5.49441C64.1601 5.16477 64.5446 4.69623 64.7716 4.14805C64.9987 3.59987 65.0581 2.99667 64.9424 2.41473C64.8266 1.83279 64.5409 1.29824 64.1213 0.878681C63.7018 0.459124 63.1672 0.173401 62.5853 0.0576455C62.0033 -0.0581102 61.4001 0.00129984 60.852 0.228363C60.3038 0.455426 59.8352 0.839944 59.5056 1.33329C59.1759 1.82664 59 2.40666 59 3C59.0009 3.79536 59.3173 4.55788 59.8797 5.12028C60.4421 5.68269 61.2046 5.99906 62 6ZM47 6C45.8133 6 44.6533 6.3519 43.6666 7.01118C42.6799 7.67047 41.9108 8.60754 41.4567 9.7039C41.0026 10.8003 40.8838 12.0067 41.1153 13.1705C41.3468 14.3344 41.9182 15.4035 42.7574 16.2426C43.5965 17.0818 44.6656 17.6532 45.8295 17.8847C46.9933 18.1162 48.1997 17.9974 49.2961 17.5433C50.3925 17.0892 51.3295 16.3201 51.9888 15.3334C52.6481 14.3467 53 13.1867 53 12C52.9982 10.4093 52.3655 8.88417 51.2407 7.75933C50.1158 6.6345 48.5908 6.00179 47 6ZM35 57H62C63.9884 57.0022 65.8948 57.7931 67.3008 59.1992C68.7069 60.6052 69.4978 62.5116 69.5 64.5V76.5C69.4978 78.4884 68.7069 80.3948 67.3008 81.8008C65.8948 83.2069 63.9884 83.9978 62 84H35C34.015 84.0002 33.0396 83.8064 32.1296 83.4296C31.2195 83.0528 30.3926 82.5003 29.6961 81.8038C28.9997 81.1074 28.4472 80.2805 28.0704 79.3704C27.6936 78.4604 27.4998 77.485 27.5 76.5V64.5C27.5022 62.5116 28.2931 60.6052 29.6992 59.1992C31.1052 57.7931 33.0116 57.0022 35 57ZM54.5 79.5C54.5 79.1022 54.342 78.7206 54.0607 78.4393C53.7794 78.158 53.3978 78 53 78H35C34.6023 77.9995 34.221 77.8414 33.9398 77.5602C33.6586 77.279 33.5004 76.8977 33.5 76.5V67.5C33.5 67.1022 33.342 66.7206 33.0607 66.4393C32.7794 66.158 32.3978 66 32 66C31.6022 66 31.2206 66.158 30.9393 66.4393C30.658 66.7206 30.5 67.1022 30.5 67.5V76.5C30.5014 77.693 30.9759 78.8368 31.8196 79.6804C32.6632 80.5241 33.807 80.9986 35 81H53C53.3978 81 53.7794 80.842 54.0607 80.5607C54.342 80.2794 54.5 79.8978 54.5 79.5ZM60.5 79.5C60.5 79.2033 60.412 78.9133 60.2472 78.6666C60.0824 78.42 59.8481 78.2277 59.574 78.1142C59.2999 78.0006 58.9983 77.9709 58.7074 78.0288C58.4164 78.0867 58.1491 78.2296 57.9393 78.4393C57.7296 78.6491 57.5867 78.9164 57.5288 79.2074C57.4709 79.4983 57.5007 79.7999 57.6142 80.074C57.7277 80.3481 57.92 80.5824 58.1666 80.7472C58.4133 80.912 58.7033 81 59 81C59.3978 81 59.7794 80.842 60.0607 80.5607C60.342 80.2794 60.5 79.8978 60.5 79.5ZM42.5 61.5C42.5 61.8978 42.658 62.2794 42.9393 62.5607C43.2206 62.842 43.6022 63 44 63H62C62.3977 63.0004 62.779 63.1586 63.0602 63.4398C63.3414 63.721 63.4996 64.1023 63.5 64.5V73.5C63.5 73.8978 63.658 74.2794 63.9393 74.5607C64.2206 74.842 64.6022 75 65 75C65.3978 75 65.7794 74.842 66.0607 74.5607C66.342 74.2794 66.5 73.8978 66.5 73.5V64.5C66.4986 63.307 66.0241 62.1632 65.1804 61.3196C64.3368 60.4759 63.193 60.0014 62 60H44C43.6022 60 43.2206 60.158 42.9393 60.4393C42.658 60.7206 42.5 61.1022 42.5 61.5ZM36.5 61.5C36.5 61.7967 36.588 62.0867 36.7528 62.3334C36.9176 62.58 37.1519 62.7723 37.426 62.8858C37.7001 62.9993 38.0017 63.0291 38.2926 62.9712C38.5836 62.9133 38.8509 62.7704 39.0607 62.5607C39.2704 62.3509 39.4133 62.0836 39.4712 61.7926C39.5291 61.5017 39.4993 61.2001 39.3858 60.926C39.2723 60.6519 39.08 60.4176 38.8334 60.2528C38.5867 60.088 38.2967 60 38 60C37.6022 60 37.2206 60.158 36.9393 60.4393C36.658 60.7206 36.5 61.1022 36.5 61.5ZM32 9H29V12H32V9ZM0.5 79.5V84H27.6361C26.3673 82.7546 25.4379 81.2056 24.9361 79.5H0.5ZM26 9H14V12H26V9ZM24.5 69H0.5V76.5H24.5V69Z" fill="#444444"/>
</svg>
