<svg width="84" height="85" viewBox="0 0 84 85" fill="none" xmlns="http://www.w3.org/2000/svg">
<path d="M64.6207 24.9155C64.6207 25.6972 63.9869 26.3336 63.2084 26.3336C62.4299 26.3336 61.7961 25.6972 61.7961 24.9155V19.3886C61.7961 17.2235 61.2381 15.0099 60.2736 12.9901C59.2678 10.8872 57.8348 8.97804 56.1332 7.53232C52.5026 4.44028 47.7421 2.88389 42.9542 2.82855C38.1042 2.77321 33.2473 4.26043 29.5133 7.24871C27.7084 8.69443 26.0618 10.5829 24.9113 12.6996C23.9124 14.5396 23.2924 16.5525 23.2924 18.5793V24.9709L23.3337 24.957L24.6082 26.5411C24.5118 24.0025 24.498 21.277 24.6082 18.8767C24.6909 18.0536 24.8493 17.2304 25.0767 16.4072C27.1366 9.00571 35.5483 4.68239 42.8646 5.08359C48.5275 5.39487 53.846 7.47699 57.2079 11.3645C61.8926 16.8084 60.6801 23.5182 60.5216 30.1589C61.5757 30.484 62.2508 31.148 62.5264 32.2341C62.8295 33.4377 62.4988 35.1255 61.4861 37.4359C61.4654 37.4774 61.4448 37.5189 61.4241 37.5604L57.0977 44.7129C55.4305 47.466 53.7357 50.2329 51.483 52.3565L51.4141 52.4188C51.6759 52.8269 51.9652 53.2904 52.2615 53.7815C52.9642 54.9229 53.7564 56.1957 54.5211 57.2817C59.2678 60.8718 71.4272 61.6949 76.0499 64.282C77.5655 65.1328 78.9364 66.2119 80.0318 67.6715C82.7531 71.2823 82.9666 76.2766 84.0069 80.683C83.7658 83.2839 82.2984 84.778 79.4049 84.9994H4.60198C1.71541 84.778 0.248011 83.2839 0 80.683C1.04027 76.2766 1.24694 71.2823 3.97507 67.6715C5.07734 66.2119 6.4414 65.1328 7.95702 64.282C12.5866 61.688 24.7529 60.8648 29.4927 57.2748C30.2367 55.6146 31.0083 53.0344 31.4905 51.4365L31.4974 51.402L31.6903 50.7863C31.711 50.7102 31.7454 50.648 31.7799 50.5788C30.4227 48.9532 29.2515 47.1271 28.1286 45.3355L24.4153 39.4073C24.1329 39.3866 23.8573 39.3382 23.5817 39.2482C20.6056 38.3075 18.1393 31.6668 18.6215 28.5333C18.8971 26.7555 19.524 26.1192 20.5367 25.7318C20.4885 25.5865 20.4609 25.4343 20.4609 25.2752V18.5793C20.4609 16.0614 21.2118 13.5919 22.4312 11.3507C23.7677 8.88812 25.676 6.69533 27.7497 5.03517C31.9934 1.63185 37.4979 -0.055974 42.9679 -0.00063543C48.3966 0.0616204 53.8046 1.83245 57.9519 5.3672C59.9498 7.06886 61.6377 9.30316 62.8157 11.7726C63.9593 14.1799 64.6276 16.8084 64.6276 19.3955V24.9155H64.6207ZM50.05 53.5463C47.9833 55.0681 45.4894 56.0158 42.3135 56.0089C38.6346 56.002 35.8652 54.5908 33.5917 52.5018C33.4264 52.3496 33.2611 52.1974 33.1026 52.0383C32.4757 54.1343 31.3665 57.8281 30.3263 59.4191C31.525 66.3364 34.1911 71.2823 36.623 76.5464L39.9711 64.8769C39.544 64.1506 39.3442 63.5142 39.3167 62.9677C37.6012 63.9361 35.7549 64.5794 33.8329 65.0083C31.7385 62.6149 31.5594 60.1178 33.8329 57.4684C36.4025 58.1187 38.7655 59.2254 40.9356 60.7196C41.4523 60.5466 42.0379 60.5051 42.6028 60.5951C44.9107 58.928 47.873 58.2709 50.4565 57.0257C53.5222 60.0209 53.1915 62.7809 50.1809 65.3473C48.3622 64.9253 46.6399 64.2612 45.0002 63.3897C44.9796 63.8324 44.8694 64.3304 44.6558 64.8769L48.0039 76.5464C50.5943 71.0748 53.2879 65.6447 53.9011 59.433C52.8746 58.1048 51.7861 56.3617 50.8492 54.8399C50.5667 54.3833 50.298 53.9475 50.05 53.5463ZM31.4905 51.4296L31.4974 51.395L31.4905 51.4296ZM26.4752 31.5631L28.1217 36.0939C28.3008 36.6196 28.3559 37.0762 28.2802 37.4705L28.2939 37.4566C30.8705 40.3273 34.0464 42.4025 37.8699 43.62C38.0628 43.1773 38.3315 42.7899 38.7242 42.4855C39.8885 41.5794 43.3055 41.6624 44.3595 42.5409C45.2414 43.2741 45.2551 44.9619 44.6007 45.8404C43.2366 47.6735 37.5599 46.131 35.6585 45.5153C32.6272 44.5331 29.8647 42.1742 27.3501 40.0575L29.9336 44.1803C31.4561 46.6082 33.0475 49.0846 35.0316 50.9039C36.9399 52.654 39.2478 53.8368 42.3066 53.8438C45.6203 53.8507 48.0384 52.6194 50.0087 50.7725C52.0548 48.8495 53.6669 46.214 55.2583 43.5854L59.5296 36.5159C60.3287 34.6897 60.6181 33.4653 60.432 32.7529C60.3218 32.324 59.8534 32.1165 59.0542 32.075C58.882 32.068 58.7097 32.068 58.5306 32.068C58.3377 32.075 58.1379 32.0888 57.9313 32.1026C57.8142 32.1096 57.7039 32.1026 57.6006 32.0819C57.2217 32.1026 56.829 32.075 56.4294 32.0196L57.8968 25.5173C47.0326 27.2328 38.9102 19.1396 27.4328 23.8987L28.2595 31.5631C27.7979 31.5838 27.357 31.57 26.9505 31.5077C26.7921 31.5354 26.6268 31.5492 26.4752 31.5631Z" fill="#444444"/>
</svg>
